<svg width="382" height="382" viewBox="0 0 382 382" fill="none" xmlns="http://www.w3.org/2000/svg">
<path d="M191.016 350.159C278.921 350.159 350.182 278.898 350.182 190.992C350.182 103.087 278.921 31.8256 191.016 31.8256C103.11 31.8256 31.8489 103.087 31.8489 190.992C31.8489 278.898 103.11 350.159 191.016 350.159Z" stroke="white" stroke-width="10" stroke-linecap="round" stroke-linejoin="round"/>
<path d="M127 145C131.971 145 136 140.971 136 136C136 131.029 131.971 127 127 127C122.029 127 118 131.029 118 136C118 140.971 122.029 145 127 145Z" fill="white" stroke="white" stroke-width="10" stroke-linecap="round" stroke-linejoin="round"/>
<path d="M246 145C250.971 145 255 140.971 255 136C255 131.029 250.971 127 246 127C241.029 127 237 131.029 237 136C237 140.971 241.029 145 246 145Z" fill="white" stroke="white" stroke-width="10" stroke-linecap="round" stroke-linejoin="round"/>
<path d="M254.682 254.659C254.682 254.659 230.807 222.826 191.016 222.826C151.224 222.826 127.349 254.659 127.349 254.659" stroke="white" stroke-width="10" stroke-linecap="round" stroke-linejoin="round"/>
</svg>
