<svg width="382" height="382" viewBox="0 0 382 382" fill="none" xmlns="http://www.w3.org/2000/svg">
<path d="M143.25 350.167C152.041 350.167 159.167 343.041 159.167 334.25C159.167 325.459 152.041 318.333 143.25 318.333C134.46 318.333 127.333 325.459 127.333 334.25C127.333 343.041 134.46 350.167 143.25 350.167Z" stroke="white" stroke-width="7" stroke-linecap="round" stroke-linejoin="round"/>
<path d="M318.333 350.167C327.124 350.167 334.25 343.041 334.25 334.25C334.25 325.459 327.124 318.333 318.333 318.333C309.543 318.333 302.417 325.459 302.417 334.25C302.417 343.041 309.543 350.167 318.333 350.167Z" stroke="white" stroke-width="7" stroke-linecap="round" stroke-linejoin="round"/>
<path d="M15.9166 15.9166H79.5833L122.24 229.041C123.695 236.369 127.682 242.951 133.502 247.636C139.321 252.321 146.604 254.81 154.073 254.667H308.783C316.253 254.81 323.535 252.321 329.355 247.636C335.175 242.951 339.161 236.369 340.617 229.041L366.083 95.5H95.5" stroke="white" stroke-width="10" stroke-linecap="round" stroke-linejoin="round"/>
</svg>
